<?xml version="1.0" encoding="UTF-8" standalone="no"?>
<!DOCTYPE svg PUBLIC "-//W3C//DTD SVG 1.1//EN" "http://www.w3.org/Graphics/SVG/1.1/DTD/svg11.dtd">
<svg width="100%" height="100%" viewBox="0 0 1024 1024" version="1.1" xmlns="http://www.w3.org/2000/svg" xmlns:xlink="http://www.w3.org/1999/xlink" xml:space="preserve" xmlns:serif="http://www.serif.com/" style="fill-rule:evenodd;clip-rule:evenodd;stroke-linejoin:round;stroke-miterlimit:2;">
    <g transform="matrix(18.6182,0,0,18.6182,-726.109,-521.309)">
        <g id="Logo-Rund" serif:id="Logo Rund">
            <circle cx="66.731" cy="55.889" r="27.079" style="fill:rgb(234,234,234);"/>
            <g>
                <g transform="matrix(29.6401,0,0,29.6401,49.9928,63.4291)">
                    <g>
                        <path d="M0.479,-0.057C0.42,-0.009 0.344,0.015 0.249,0.015C0.2,0.015 0.157,-0.001 0.12,-0.033C0.073,-0.074 0.042,-0.134 0.029,-0.212C0.026,-0.235 0.024,-0.257 0.024,-0.279C0.024,-0.355 0.044,-0.451 0.083,-0.569C0.111,-0.65 0.146,-0.725 0.188,-0.792C0.23,-0.859 0.279,-0.907 0.333,-0.935C0.361,-0.95 0.39,-0.957 0.42,-0.957C0.476,-0.957 0.521,-0.94 0.554,-0.906C0.587,-0.872 0.609,-0.827 0.619,-0.77C0.618,-0.763 0.615,-0.756 0.609,-0.751C0.603,-0.745 0.596,-0.742 0.589,-0.742C0.582,-0.742 0.577,-0.747 0.573,-0.756C0.565,-0.778 0.558,-0.798 0.55,-0.816C0.524,-0.879 0.481,-0.91 0.42,-0.91C0.371,-0.91 0.323,-0.887 0.276,-0.84C0.216,-0.779 0.167,-0.691 0.128,-0.577C0.089,-0.463 0.07,-0.371 0.07,-0.3C0.07,-0.23 0.081,-0.171 0.104,-0.124C0.135,-0.061 0.186,-0.03 0.256,-0.03C0.371,-0.03 0.45,-0.062 0.492,-0.126C0.507,-0.149 0.516,-0.175 0.521,-0.204C0.52,-0.208 0.519,-0.211 0.519,-0.215C0.519,-0.218 0.515,-0.225 0.507,-0.235C0.5,-0.245 0.483,-0.261 0.459,-0.285C0.435,-0.309 0.413,-0.328 0.392,-0.343C0.349,-0.334 0.3,-0.326 0.246,-0.319C0.233,-0.32 0.226,-0.326 0.226,-0.337C0.226,-0.345 0.23,-0.353 0.238,-0.36C0.282,-0.391 0.32,-0.407 0.351,-0.407C0.37,-0.407 0.389,-0.402 0.407,-0.392C0.487,-0.41 0.578,-0.435 0.679,-0.467C0.695,-0.467 0.703,-0.461 0.703,-0.45C0.703,-0.447 0.702,-0.442 0.699,-0.435C0.614,-0.295 0.549,-0.142 0.505,0.024C0.483,0.108 0.465,0.185 0.452,0.256C0.439,0.326 0.428,0.381 0.42,0.42C0.419,0.428 0.415,0.435 0.409,0.44C0.403,0.446 0.397,0.448 0.392,0.448C0.381,0.448 0.375,0.441 0.374,0.427C0.396,0.286 0.415,0.185 0.43,0.123C0.446,0.062 0.462,0.001 0.479,-0.057ZM0.455,-0.356C0.485,-0.327 0.502,-0.311 0.507,-0.306C0.512,-0.301 0.519,-0.294 0.527,-0.286C0.536,-0.278 0.544,-0.269 0.551,-0.26C0.563,-0.285 0.576,-0.31 0.591,-0.334C0.605,-0.359 0.619,-0.383 0.633,-0.407C0.574,-0.387 0.515,-0.37 0.455,-0.356Z" style="fill:rgb(110,56,56);fill-rule:nonzero;"/>
                    </g>
                </g>
                <g transform="matrix(29.6401,0,0,29.6401,65.5962,72.7749)">
                    <g>
                        <path d="M0.421,-0.967C0.499,-0.967 0.55,-0.925 0.575,-0.841C0.578,-0.837 0.579,-0.831 0.579,-0.825C0.579,-0.819 0.576,-0.814 0.571,-0.809C0.565,-0.803 0.559,-0.801 0.553,-0.801C0.543,-0.801 0.537,-0.807 0.535,-0.819C0.531,-0.849 0.518,-0.874 0.498,-0.894C0.478,-0.915 0.452,-0.925 0.421,-0.925C0.39,-0.925 0.366,-0.914 0.35,-0.892C0.334,-0.87 0.326,-0.845 0.326,-0.815C0.326,-0.785 0.33,-0.755 0.338,-0.724C0.346,-0.692 0.356,-0.661 0.368,-0.63C0.38,-0.599 0.393,-0.567 0.407,-0.536C0.421,-0.505 0.434,-0.473 0.446,-0.442C0.474,-0.369 0.488,-0.303 0.488,-0.244C0.488,-0.186 0.472,-0.132 0.439,-0.084C0.398,-0.021 0.333,0.011 0.244,0.011C0.176,0.011 0.117,-0.006 0.068,-0.04C0.018,-0.073 -0.007,-0.122 -0.007,-0.185C-0.007,-0.248 0.012,-0.303 0.05,-0.349C0.063,-0.365 0.08,-0.382 0.1,-0.4C0.107,-0.405 0.113,-0.408 0.119,-0.408C0.132,-0.408 0.138,-0.403 0.138,-0.392C0.138,-0.387 0.137,-0.382 0.134,-0.377C0.101,-0.346 0.079,-0.321 0.068,-0.301C0.05,-0.266 0.041,-0.232 0.041,-0.199C0.041,-0.167 0.047,-0.141 0.058,-0.121C0.069,-0.102 0.085,-0.085 0.104,-0.072C0.141,-0.046 0.189,-0.033 0.248,-0.033C0.308,-0.033 0.356,-0.057 0.393,-0.104C0.424,-0.144 0.44,-0.192 0.44,-0.25C0.44,-0.308 0.413,-0.4 0.359,-0.525C0.305,-0.651 0.278,-0.738 0.278,-0.787C0.278,-0.836 0.29,-0.878 0.313,-0.914C0.336,-0.949 0.372,-0.967 0.421,-0.967Z" style="fill:rgb(110,56,56);fill-rule:nonzero;"/>
                    </g>
                </g>
            </g>
        </g>
    </g>
</svg>
